HIERARCHY
ROOT Hips
{
  OFFSET 5.04731 94.866 -7.60916
  CHANNELS 6 Xposition Yposition Zposition Zrotation Xrotation Yrotation
  JOINT Spine
  {
    OFFSET 0 15.3684 -2.40487
    CHANNELS 6 Xposition Yposition Zposition Zrotation Xrotation Yrotation
    JOINT Spine1
    {
      OFFSET 0 9.79164 0
      CHANNELS 6 Xposition Yposition Zposition Zrotation Xrotation Yrotation
      JOINT Spine2
      {
        OFFSET 0 9.79164 0
        CHANNELS 6 Xposition Yposition Zposition Zrotation Xrotation Yrotation
        JOINT Spine3
        {
          OFFSET 0 9.79164 0
          CHANNELS 6 Xposition Yposition Zposition Zrotation Xrotation Yrotation
          JOINT Neck
          {
            OFFSET 0 12.5893 1.25893
            CHANNELS 6 Xposition Yposition Zposition Zrotation Xrotation Yrotation
            JOINT Neck1
            {
              OFFSET 0 4.095 0
              CHANNELS 6 Xposition Yposition Zposition Zrotation Xrotation Yrotation
              JOINT Head
              {
                OFFSET 0 4.095 0
                CHANNELS 6 Xposition Yposition Zposition Zrotation Xrotation Yrotation
                End Site
                {
                  OFFSET 0 9.72808 0
                }
              }
            }
          }
          JOINT RightShoulder
          {
            OFFSET 0 8.99232 5.27092
            CHANNELS 6 Xposition Yposition Zposition Zrotation Xrotation Yrotation
            JOINT RightArm
            {
              OFFSET 0 21.4762 0
              CHANNELS 6 Xposition Yposition Zposition Zrotation Xrotation Yrotation
              JOINT RightForeArm
              {
                OFFSET 0 30.4806 0
                CHANNELS 6 Xposition Yposition Zposition Zrotation Xrotation Yrotation
                JOINT RightHand
                {
                  OFFSET 0 25.7941 0
                  CHANNELS 6 Xposition Yposition Zposition Zrotation Xrotation Yrotation
                  JOINT RightHandThumb1
                  {
                    OFFSET -3.10387 3.51294 2.61218
                    CHANNELS 6 Xposition Yposition Zposition Zrotation Xrotation Yrotation
                    End Site
                    {
                      OFFSET 0 0 0
                    }
                  }
                  JOINT RightHandMiddle1
                  {
                    OFFSET 0 9.36783 -0.0600502
                    CHANNELS 6 Xposition Yposition Zposition Zrotation Xrotation Yrotation
                    End Site
                    {
                      OFFSET 0 0 0
                    }
                  }
                }
              }
            }
          }
          JOINT LeftShoulder
          {
            OFFSET 0 8.99232 5.27092
            CHANNELS 6 Xposition Yposition Zposition Zrotation Xrotation Yrotation
            JOINT LeftArm
            {
              OFFSET 0 21.4762 0
              CHANNELS 6 Xposition Yposition Zposition Zrotation Xrotation Yrotation
              JOINT LeftForeArm
              {
                OFFSET 0 30.4806 0
                CHANNELS 6 Xposition Yposition Zposition Zrotation Xrotation Yrotation
                JOINT LeftHand
                {
                  OFFSET 0 25.7941 0
                  CHANNELS 6 Xposition Yposition Zposition Zrotation Xrotation Yrotation
                  JOINT LeftHandThumb1
                  {
                    OFFSET 3.10387 3.51294 2.61218
                    CHANNELS 6 Xposition Yposition Zposition Zrotation Xrotation Yrotation
                    End Site
                    {
                      OFFSET 0 0 0
                    }
                  }
                  JOINT LeftHandMiddle1
                  {
                    OFFSET 0 9.36783 -0.0600502
                    CHANNELS 6 Xposition Yposition Zposition Zrotation Xrotation Yrotation
                    End Site
                    {
                      OFFSET 0 0 0
                    }
                  }
                }
              }
            }
          }
        }
      }
    }
  }
  JOINT RightUpLeg
  {
    OFFSET -10.4733 0 0
    CHANNELS 6 Xposition Yposition Zposition Zrotation Xrotation Yrotation
    JOINT RightLeg
    {
      OFFSET 0 -45.8208 0
      CHANNELS 6 Xposition Yposition Zposition Zrotation Xrotation Yrotation
      JOINT RightFoot
      {
        OFFSET 0 -45.0804 0
        CHANNELS 6 Xposition Yposition Zposition Zrotation Xrotation Yrotation
        JOINT RightForeFoot
        {
          OFFSET 0 -4.41419 0
          CHANNELS 6 Xposition Yposition Zposition Zrotation Xrotation Yrotation
          JOINT RightToeBase
          {
            OFFSET 0 0 17.2874
            CHANNELS 6 Xposition Yposition Zposition Zrotation Xrotation Yrotation
            End Site
            {
              OFFSET 0 0 5.58569
            }
          }
        }
      }
    }
  }
  JOINT LeftUpLeg
  {
    OFFSET 10.4733 0 0
    CHANNELS 6 Xposition Yposition Zposition Zrotation Xrotation Yrotation
    JOINT LeftLeg
    {
      OFFSET 0 -45.8208 0
      CHANNELS 6 Xposition Yposition Zposition Zrotation Xrotation Yrotation
      JOINT LeftFoot
      {
        OFFSET 0 -45.0804 0
        CHANNELS 6 Xposition Yposition Zposition Zrotation Xrotation Yrotation
        JOINT LeftForeFoot
        {
          OFFSET 0 -4.41419 0
          CHANNELS 6 Xposition Yposition Zposition Zrotation Xrotation Yrotation
          JOINT LeftToeBase
          {
            OFFSET 0 0 17.2874
            CHANNELS 6 Xposition Yposition Zposition Zrotation Xrotation Yrotation
            End Site
            {
              OFFSET 0 0 4.94953
            }
          }
        }
      }
    }
  }
}
MOTION
Frames:	7
Frame Time:	0.00833333
5.04731 94.866 -7.60916 7.73847 -13.2498 0.880156 -3.55271e-015 15.3684 -2.40487 -6.56208 10.3961 0.214704 0 9.79164 0 -2.02451 7.52908 0.789443 2.22045e-016 9.79164 3.55271e-015 -1.64567 2.55015 1.98052 -6.66134e-016 9.79164 -7.10543e-015 1.30952 -0.476432 0.386297 2.22045e-016 12.5893 1.25893 -1.05654 2.86134 -2.65969 4.44089e-016 4.095 0 1.89825 -1.75442 -4.66277 1.11022e-016 4.095 3.55271e-015 1.85353 -13.2514 -0.111977 -2.22045e-016 8.99232 5.27092 85.745 -25.346 -1.82423 2.84217e-014 21.4762 3.55271e-015 27.3764 11.2524 47.1811 0 30.4806 0 -1.15042e-006 44.4422 -27.3437 0 25.7941 8.88178e-015 7.11857 -20.84 -6.8064e-015 -3.10387 3.51294 2.61218 3.66965e-015 45.2637 -4.51883e-015 0 9.36783 -0.0600502 6.21202e-017 -9.93923e-017 -3.18055e-015 -2.22045e-016 8.99232 5.27092 -85.3543 -28.4641 2.21795 0 21.4762 0 -12.5477 35.0336 -39.9171 0 30.4806 0 5.63818e-008 29.9173 29.285 0 25.7941 0 -8.05342 -24.0273 -0 3.10387 3.51294 2.61218 -3.22467e-015 45.2637 6.77824e-015 0 9.36783 -0.0600502 1.98785e-016 0 1.59028e-015 -10.4733 1.42109e-014 1.77636e-015 -14.9934 17.9183 -4.93075 0 -45.8208 -1.77636e-015 -6.76401e-016 9.22053 -3.22219e-015 0 -45.0804 3.55271e-015 11.2429 -19.5873 -4.74902 0 -4.41419 0 -5.96354e-016 -1.59028e-015 3.18055e-015 0 -4.44089e-016 17.2874 -3.59019e-017 -1.4668 6.36319e-015 10.4733 0 1.77636e-015 -7.20119 17.9043 14.9604 3.55271e-015 -45.8208 0 -1.98785e-016 2.24477 -0 -3.55271e-015 -45.0804 -1.77636e-015 4.35295 -12.4733 7.30478 -3.55271e-015 -4.41419 -3.55271e-015 -1.98785e-015 0 3.18055e-015 -3.55271e-015 -4.44089e-016 17.2874 -3.24928e-016 6.47991 6.40201e-015 
5.05084 94.864 -7.60637 7.74106 -13.2486 0.880624 -3.55271e-015 15.3684 -2.40487 -6.5584 10.4057 0.21234 8.88178e-016 9.79164 0 -2.02391 7.53419 0.788776 0 9.79164 0 -1.64511 2.5542 1.97875 4.44089e-016 9.79164 3.55271e-015 1.31647 -0.476887 0.385344 8.88178e-016 12.5893 1.25893 -1.06044 2.86982 -2.65504 0 4.095 0 1.88455 -1.77959 -4.65247 2.22045e-016 4.095 3.55271e-015 1.84335 -13.2733 -0.112393 2.22045e-016 8.99232 5.27092 85.7544 -25.3238 -1.81871 2.84217e-014 21.4762 0 27.5361 11.0964 47.0141 0 30.4806 -1.42109e-014 4.43746e-006 44.4585 -27.3345 2.84217e-014 25.7941 0 7.13791 -20.7756 3.48506e-005 -3.10387 3.51294 2.61218 -3.02195e-015 45.2637 9.03765e-015 -2.84217e-014 9.36783 -0.0600502 -3.7738e-016 -1.61513e-016 3.18055e-015 2.22045e-016 8.99232 5.27092 -85.2691 -28.4013 2.25403 2.84217e-014 21.4762 0 -12.9666 34.8055 -39.7068 2.84217e-014 30.4806 -1.42109e-014 0.00029234 30.0209 29.3782 -2.84217e-014 25.7941 7.10543e-015 -8.14675 -24.0166 -2.83885e-005 3.10387 3.51294 2.61218 6.53402e-015 45.2637 -1.12971e-014 -2.84217e-014 9.36783 -0.0600502 -9.93923e-017 7.95139e-016 -0 -10.4733 1.42109e-014 3.55271e-015 -14.9976 17.9216 -4.92458 -3.55271e-015 -45.8208 0 -3.2207e-015 9.21609 -1.61107e-015 0 -45.0804 -3.55271e-015 11.2443 -19.5916 -4.75455 0 -4.41419 3.55271e-015 -5.96354e-016 7.95139e-016 -0 -3.55271e-015 0 17.2874 1.98785e-016 -1.46326 -0 10.4733 1.42109e-014 0 -7.20682 17.9095 14.9673 3.55271e-015 -45.8208 0 -5.21772e-016 2.23629 3.18298e-015 0 -45.0804 0 4.35279 -12.4734 7.29861 0 -4.41419 1.77636e-015 5.96354e-016 0 3.18055e-015 0 0 17.2874 -1.19271e-015 6.48109 -0 
5.05448 94.8635 -7.60578 7.74364 -13.2474 0.881091 0 15.3684 -2.40487 -6.55472 10.4153 0.209975 8.88178e-016 9.79164 0 -2.0233 7.53931 0.78811 2.22045e-016 9.79164 0 -1.64455 2.55825 1.97699 -2.22045e-016 9.79164 0 1.32343 -0.477341 0.38439 0 12.5893 1.25893 -1.06433 2.87829 -2.65039 -8.88178e-016 4.095 0 1.87086 -1.80477 -4.64218 0 4.095 0 1.83316 -13.2951 -0.112812 -2.22045e-016 8.99232 5.27092 85.7638 -25.3017 -1.81319 2.84217e-014 21.4762 0 27.6952 10.9401 46.8476 0 30.4806 -1.42109e-014 6.36394e-006 44.4748 -27.3253 0 25.7941 3.55271e-015 7.15725 -20.7112 4.64476e-005 -3.10387 3.51294 2.61218 2.69825e-015 45.2637 -4.51883e-015 0 9.36783 -0.0600502 2.82647e-016 4.03781e-017 -0 -2.22045e-016 8.99232 5.27092 -85.1841 -28.3384 2.28999 -2.84217e-014 21.4762 -3.55271e-015 -13.3832 34.5762 -39.4991 0 30.4806 1.42109e-014 0.000390049 30.1245 29.4716 0 25.7941 0 -8.24006 -24.006 -3.78483e-005 3.10387 3.51294 2.61218 -1.00863e-015 45.2637 2.25941e-015 2.84217e-014 9.36783 -0.0600502 2.98177e-016 7.95139e-016 -0 -10.4733 -1.42109e-014 -1.77636e-015 -15.0018 17.9249 -4.9184 0 -45.8208 0 0 9.21166 -0 0 -45.0804 -3.55271e-015 11.2456 -19.5958 -4.76008 -3.55271e-015 -4.41419 0 -7.95139e-016 0 1.59028e-015 0 -4.44089e-016 17.2874 -7.54614e-016 -1.45973 1.59079e-015 10.4733 -1.42109e-014 1.77636e-015 -7.21244 17.9147 14.9741 0 -45.8208 0 7.50537e-017 2.22782 3.18296e-015 0 -45.0804 1.77636e-015 4.35263 -12.4735 7.29243 0 -4.41419 3.55271e-015 1.59028e-015 7.95139e-016 3.18055e-015 0 -3.33067e-016 17.2874 -1.75287e-015 6.48227 3.20102e-015 
5.05755 94.8623 -7.59863 7.74622 -13.2462 0.881559 3.55271e-015 15.3684 -2.40487 -6.55105 10.4249 0.207609 0 9.79164 0 -2.0227 7.54442 0.787443 0 9.79164 0 -1.64399 2.56231 1.97523 6.66134e-016 9.79164 0 1.33038 -0.477796 0.383437 2.22045e-016 12.5893 1.25893 -1.06823 2.88677 -2.64574 0 4.095 0 1.85717 -1.82995 -4.63189 -2.22045e-016 4.095 0 1.82297 -13.3169 -0.113236 0 8.99232 5.27092 85.7732 -25.2795 -1.80767 0 21.4762 3.55271e-015 27.8538 10.7832 46.6817 0 30.4806 0 4.62594e-006 44.4911 -27.3162 0 25.7941 -8.88178e-015 7.17657 -20.6468 3.48209e-005 -3.10387 3.51294 2.61218 -8.58588e-015 45.2637 1.35565e-014 -5.68434e-014 9.36783 -0.0600502 -1.48312e-016 -4.50372e-017 6.36111e-015 0 8.99232 5.27092 -85.0992 -28.2754 2.32583 0 21.4762 0 -13.7978 34.3457 -39.2941 0 30.4806 0 0.000292572 30.228 29.565 0 25.7941 -7.10543e-015 -8.33337 -23.9954 -2.83838e-005 3.10387 3.51294 2.61218 5.6542e-015 45.2637 -1.35565e-014 2.84217e-014 9.36783 -0.0600502 9.93923e-017 0 -1.59028e-015 -10.4733 -1.42109e-014 0 -15.006 17.9282 -4.91222 3.55271e-015 -45.8208 1.77636e-015 1.09332e-015 9.20723 -0 -3.55271e-015 -45.0804 -3.55271e-015 11.247 -19.6001 -4.76561 3.55271e-015 -4.41419 3.55271e-015 -3.97569e-016 -1.59028e-015 -3.18055e-015 0 0 17.2874 -1.61706e-016 -1.4562 -6.36316e-015 10.4733 0 5.32907e-015 -7.21806 17.9199 14.981 3.55271e-015 -45.8208 0 -1.2326e-016 2.21934 3.18294e-015 0 -45.0804 0 4.35247 -12.4736 7.28626 3.55271e-015 -4.41419 1.77636e-015 9.93923e-016 -7.95139e-016 -3.18055e-015 0 -3.33067e-016 17.2874 3.61448e-016 6.48346 -3.20103e-015 
5.06077 94.8606 -7.59495 7.74881 -13.2451 0.882026 0 15.3684 -2.40487 -6.54737 10.4345 0.205242 0 9.79164 3.55271e-015 -2.02209 7.54954 0.786776 2.22045e-016 9.79164 -3.55271e-015 -1.64343 2.56636 1.97346 2.22045e-016 9.79164 3.55271e-015 1.33734 -0.47825 0.382483 -4.44089e-016 12.5893 1.25893 -1.07213 2.89525 -2.64109 0 4.095 0 1.84349 -1.85513 -4.62161 -2.22045e-016 4.095 -3.55271e-015 1.81278 -13.3387 -0.113664 0 8.99232 5.27092 85.7826 -25.2573 -1.80216 0 21.4762 3.55271e-015 28.0118 10.6259 46.5163 0 30.4806 0 -7.79602e-007 44.5075 -27.307 0 25.7941 1.77636e-015 7.19589 -20.5824 3.39742e-015 -3.10387 3.51294 2.61218 -1.03361e-014 45.2637 1.35565e-014 2.84217e-014 9.36783 -0.0600502 4.86091e-016 2.21303e-016 6.36111e-015 0 8.99232 5.27092 -85.0144 -28.2124 2.36153 0 21.4762 0 -14.2102 34.1139 -39.0916 -2.84217e-014 30.4806 0 -7.08264e-007 30.3316 29.6586 -2.84217e-014 25.7941 0 -8.42667 -23.9848 -1.74057e-015 3.10387 3.51294 2.61218 -1.20741e-015 45.2637 2.25941e-015 2.84217e-014 9.36783 -0.0600502 7.95139e-016 0 1.59028e-015 -10.4733 0 0 -15.0102 17.9315 -4.90604 0 -45.8208 -1.77636e-015 -4.96962e-016 9.20279 -0 0 -45.0804 0 11.2484 -19.6043 -4.77114 0 -4.41419 0 1.19271e-015 1.59028e-015 -0 3.55271e-015 0 17.2874 -7.95139e-016 -1.45267 -0 10.4733 0 0 -7.22369 17.9251 14.9878 0 -45.8208 0 3.21573e-016 2.21086 -3.18292e-015 0 -45.0804 1.77636e-015 4.35231 -12.4737 7.28008 0 -4.41419 -1.77636e-015 5.96354e-016 -7.95139e-016 -0 0 0 17.2874 7.95139e-016 6.48464 -0 
5.06559 94.86 -7.59228 7.75298 -13.2396 0.877594 0 15.3684 -2.40487 -6.54571 10.4399 0.202682 8.88178e-016 9.79164 0 -2.0232 7.55045 0.786921 -2.22045e-016 9.79164 0 -1.64438 2.56978 1.97155 0 9.79164 0 1.33442 -0.479103 0.382883 -8.88178e-016 12.5893 1.25893 -1.07247 2.8989 -2.64385 0 4.095 0 1.84016 -1.86387 -4.61845 1.11022e-016 4.095 0 1.81683 -13.3439 -0.11319 -8.88178e-016 8.99232 5.27092 85.8096 -25.2182 -1.78802 -2.84217e-014 21.4762 0 28.1887 10.4297 46.28 -1.42109e-014 30.4806 -1.42109e-014 3.11338e-005 44.5193 -27.2333 0 25.7941 1.77636e-015 7.0898 -20.5371 -0.000134411 -3.10387 3.51294 2.61218 5.20356e-016 45.2637 4.51883e-015 0 9.36783 -0.0600502 -2.48481e-016 -6.21202e-017 -0 -8.88178e-016 8.99232 5.27092 -84.9037 -28.1466 2.40886 0 21.4762 0 -14.6836 33.8587 -38.8753 2.84217e-014 30.4806 1.42109e-014 0.000269008 30.4597 29.7277 0 25.7941 7.10543e-015 -8.35066 -24.0097 -5.42364e-005 3.10387 3.51294 2.61218 -1.10802e-015 45.2637 2.25941e-015 0 9.36783 -0.0600502 4.41391e-032 -7.95139e-016 3.18055e-015 -10.4733 0 0 -15.0182 17.9251 -4.89469 3.55271e-015 -45.8208 1.77636e-015 7.36247e-016 9.20379 1.61102e-015 0 -45.0804 3.55271e-015 11.2525 -19.6092 -4.77482 0 -4.41419 0 -3.97569e-016 1.59028e-015 -0 -3.55271e-015 0 17.2874 -1.19271e-015 -1.45822 -0 10.4733 1.42109e-014 3.55271e-015 -7.23198 17.9225 14.9944 -3.55271e-015 -45.8208 1.77636e-015 1.98785e-016 2.20804 -0 0 -45.0804 -3.55271e-015 4.35168 -12.4745 7.27752 -7.10543e-015 -4.41419 1.77636e-015 5.96354e-016 1.59028e-015 -9.54166e-015 3.55271e-015 0 17.2874 2.5118e-015 6.48205 -6.40204e-015 
5.06629 94.8582 -7.59188 7.75715 -13.2342 0.873163 3.55271e-015 15.3684 -2.40487 -6.54404 10.4454 0.200122 8.88178e-016 9.79164 0 -2.02431 7.55136 0.787067 -4.44089e-016 9.79164 0 -1.64532 2.5732 1.96964 6.66134e-016 9.79164 0 1.3315 -0.479955 0.383282 0 12.5893 1.25893 -1.07281 2.90255 -2.64661 4.44089e-016 4.095 -7.10543e-015 1.83683 -1.87262 -4.6153 6.66134e-016 4.095 3.55271e-015 1.82088 -13.3491 -0.112716 4.44089e-016 8.99232 5.27092 85.8366 -25.179 -1.7739 0 21.4762 0 28.3645 10.2328 46.0444 0 30.4806 -1.42109e-014 4.1733e-005 44.5311 -27.1596 0 25.7941 3.55271e-015 6.98373 -20.4917 -0.000179162 -3.10387 3.51294 2.61218 -8.64053e-015 45.2637 1.80753e-014 2.84217e-014 9.36783 -0.0600502 2.04997e-016 -7.45443e-017 3.18055e-015 4.44089e-016 8.99232 5.27092 -84.7931 -28.0807 2.45601 -2.84217e-014 21.4762 -3.55271e-015 -15.1545 33.6021 -38.6622 2.84217e-014 30.4806 1.42109e-014 0.0003594 30.5878 29.797 0 25.7941 7.10543e-015 -8.27463 -24.0346 -7.23293e-005 3.10387 3.51294 2.61218 -4.31798e-015 45.2637 6.77824e-015 -2.84217e-014 9.36783 -0.0600502 -6.95746e-016 0 4.77083e-015 -10.4733 0 -1.77636e-015 -15.0262 17.9188 -4.88335 0 -45.8208 0 2.26758e-015 9.20478 3.22205e-015 0 -45.0804 0 11.2567 -19.6141 -4.77849 0 -4.41419 -3.55271e-015 -3.97569e-016 7.95139e-016 3.18055e-015 0 0 17.2874 -0 -1.46377 -0 10.4733 0 0 -7.24028 17.92 15.001 0 -45.8208 -3.55271e-015 2.60022e-016 2.20522 -1.59146e-015 3.55271e-015 -45.0804 0 4.35106 -12.4753 7.27496 0 -4.41419 0 -3.97569e-016 0 -0 0 -5.55112e-016 17.2874 -1.35515e-015 6.47947 3.201e-015 
